#!OML:ASF E:\Steps\Project 1\Capture day 1\Session 2\Subject.ASF
:FULLY-SPECIFIED
:DEGREES
425
root -1.04836 15.8316 -1.25443 -158.866 -5.08388 178.366
lowerback -28.7386 -4.22379 -3.35849
upperback 0.5665 -5.02871 1.64635
thorax 16.3736 -2.67739 1.55997
lowerneck 9.85227 1.40406 -2.7799
upperneck 11.1853 2.48627 7.26543
head 1.76257 1.75048 2.80918
rclavicle 4.72114e-014 -3.4191e-014
rhumerus -48.1647 -31.2811 -63.0921
rradius 23.2558
rwrist 6.05992
rhand -7.21306 -53.5944
rfingers 7.12502
rthumb 18.6659 -82.7188
lclavicle 4.72114e-014 -3.4191e-014
lhumerus -25.3487 1.47181 82.3465
lradius 24.9452
lwrist -3.24339
lhand -22.4842 -10.4534
lfingers 7.12502
lthumb 3.94117 19.4899
rfemur -40.0796 5.59791 17.0257
rtibia 16.5669
rfoot -6.91797 -10.5522
rtoes -25.6587
lfemur -18.5924 -8.98071 -23.0368
ltibia 43.2536
lfoot -3.53699 -6.8858
ltoes -15.8325
426
root -1.03157 15.8447 -1.38766 -159.09 -4.95243 178.385
lowerback -28.666 -4.23746 -3.48373
upperback 0.685285 -4.99851 1.68052
thorax 16.4935 -2.67186 1.67948
lowerneck 10.6347 1.55687 -2.58319
upperneck 10.1848 2.68461 7.05322
head 1.29653 1.79797 2.66151
rclavicle -2.4376e-014 1.59028e-015
rhumerus -47.7545 -31.084 -63.5041
rradius 23.4458
rwrist 6.15307
rhand -6.83481 -53.2943
rfingers 7.12502
rthumb 19.0297 -82.3833
lclavicle -2.4376e-014 1.59028e-015
lhumerus -25.6024 2.06236 82.2858
lradius 24.3259
lwrist -3.64033
lhand -22.3666 -10.2105
lfingers 7.12502
lthumb 4.05474 19.7307
rfemur -39.3084 5.25858 17.5162
rtibia 16.572
rfoot -6.80588 -9.92312
rtoes -26.6787
lfemur -19.4032 -7.96678 -23.0314
ltibia 45.6077
lfoot -1.38894 -6.37962
ltoes -12.0695
427
root -1.01266 15.8556 -1.50845 -159.067 -4.9853 178.404
lowerback -28.622 -4.29354 -3.633
upperback 0.660596 -5.03824 1.76168
thorax 16.4671 -2.70607 1.83582
lowerneck 10.4627 1.47732 -2.58179
upperneck 10.2211 2.56957 6.95985
head 1.34394 1.73825 2.63598
rclavicle -2.50966e-014 1.37161e-014
rhumerus -47.4628 -30.6815 -63.9859
rradius 23.8078
rwrist 6.035
rhand -6.33328 -52.8937
rfingers 7.12502
rthumb 19.5119 -81.9346
lclavicle -2.50966e-014 1.37161e-014
lhumerus -25.8717 2.63293 82.2542
lradius 23.6826
lwrist -4.1158
lhand -22.0651 -10.265
lfingers 7.12502
lthumb 4.34593 19.6704
rfemur -38.7638 4.93979 17.9184
rtibia 16.4486
rfoot -6.844 -9.32896
rtoes -28.3501
lfemur -20.6747 -7.12469 -22.8847
ltibia 48.1819
lfoot 0.630079 -5.91628
ltoes -7.30798
428
root -0.992306 15.8653 -1.62159 -158.933 -5.18983 178.541
lowerback -28.6182 -4.36729 -3.65025
upperback 0.570042 -5.15915 1.88324
thorax 16.3815 -2.76902 1.92999
lowerneck 9.55122 1.21773 -2.852
upperneck 11.328 2.22046 7.13631
head 1.87596 1.61503 2.79221
rclavicle -1.18277e-014 6.95746e-015
rhumerus -47.1305 -30.0109 -64.6598
rradius 24.2569
rwrist 5.5588
rhand -6.2129 -52.1824
rfingers 7.12502
rthumb 19.6277 -81.2116
lclavicle -1.18277e-014 6.95746e-015
lhumerus -25.8831 3.35584 82.208
lradius 22.7148
lwrist -4.75848
lhand -21.2413 -9.58292
lfingers 7.12502
lthumb 5.14133 20.3347
rfemur -38.3712 4.72723 18.3865
rtibia 16.3386
rfoot -6.79863 -8.95001
rtoes -30.0546
lfemur -22.1721 -6.36931 -22.5374
ltibia 50.7833
lfoot 2.52712 -5.51703
ltoes -6.75029
429
root -0.973151 15.8744 -1.74065 -158.975 -5.37165 178.66
lowerback -28.5283 -4.40921 -3.64558
upperback 0.538292 -5.23098 1.94887
thorax 16.3135 -2.80394 1.97551
lowerneck 10.1904 1.34688 -2.85404
upperneck 10.7245 2.38341 7.25701
head 1.55866 1.66945 2.80654
rclavicle 4.32357e-015 -2.78299e-014
rhumerus -46.8575 -29.0565 -65.5602
rradius 24.9756
rwrist 4.84773
rhand -5.95179 -51.4114
rfingers 7.12502
rthumb 19.8787 -80.4148
lclavicle 4.32357e-015 -2.78299e-014
lhumerus -26.101 3.73705 82.1922
lradius 22.0295
lwrist -5.06997
lhand -20.6194 -8.84371
lfingers 7.12502
lthumb 5.74178 21.0585
rfemur -37.8528 4.48023 18.8645
rtibia 16.3558
rfoot -6.53471 -8.67958
rtoes -30.6429
lfemur -23.3527 -5.50299 -22.3262
ltibia 53.0089
lfoot 4.27897 -5.0344
ltoes -7.25254
